<?xml version="1.0" encoding="iso-8859-1"?>
<!-- Generator: Adobe Illustrator 19.0.0, SVG Export Plug-In . SVG Version: 6.00 Build 0)  -->
<svg version="1.1" id="Layer_1" xmlns="http://www.w3.org/2000/svg" xmlns:xlink="http://www.w3.org/1999/xlink" x="0px" y="0px"
	 viewBox="0 0 512 512" style="enable-background:new 0 0 512 512;" xml:space="preserve">
<path style="fill:#FFDC64;" d="M296.825,56.889h-81.65c-9.269,0-17.18,6.702-18.705,15.846l-6.841,41.043H322.37l-6.841-41.043
	C314.005,63.591,306.094,56.889,296.825,56.889z"/>
<g>
	<rect x="18.963" y="189.63" style="fill:#E1A546;" width="47.407" height="18.963"/>
	<rect x="445.63" y="189.63" style="fill:#E1A546;" width="47.407" height="18.963"/>
</g>
<g>
	<path style="fill:#FFC850;" d="M397.262,104.296H114.738c-11.961,0-22.644,7.482-26.732,18.724l-31.117,85.573v28.444h398.222
		v-28.444l-31.117-85.573C419.906,111.778,409.222,104.296,397.262,104.296L397.262,104.296z"/>
	<path style="fill:#FFC850;" d="M18.963,170.667h9.481c10.473,0,18.963,8.489,18.963,18.963l0,0
		c0,10.473-8.489,18.963-18.963,18.963h-9.481C8.489,208.593,0,200.103,0,189.63l0,0C0,179.156,8.489,170.667,18.963,170.667z"/>
	<path style="fill:#FFC850;" d="M483.556,170.667h9.481c10.473,0,18.963,8.489,18.963,18.963l0,0
		c0,10.473-8.489,18.963-18.963,18.963h-9.481c-10.474,0-18.963-8.489-18.963-18.963l0,0
		C464.593,179.156,473.082,170.667,483.556,170.667z"/>
</g>
<path style="fill:#707487;" d="M397.262,123.259c3.973,0,7.553,2.508,8.91,6.241l29.976,82.433v6.14H75.852v-6.14l29.976-82.433
	c1.358-3.733,4.937-6.241,8.91-6.241H397.262"/>
<g>
	<path style="fill:#5B5D6E;" d="M284.444,123.259H114.738c-3.973,0-7.553,2.508-8.91,6.241l-29.976,82.433v6.14H189.63
		L284.444,123.259z"/>
	<path style="fill:#5B5D6E;" d="M18.963,369.778v75.852c0,5.236,4.245,9.481,9.481,9.481h28.444c5.236,0,9.481-4.245,9.481-9.481
		v-75.852H18.963z"/>
</g>
<path style="fill:#464655;" d="M18.963,407.462c7.948,6.016,17.73,9.723,28.444,9.723H66.37v-47.407H18.963V407.462z"/>
<path style="fill:#5B5D6E;" d="M493.037,369.778v75.852c0,5.236-4.245,9.481-9.481,9.481h-28.444c-5.236,0-9.481-4.245-9.481-9.481
	v-75.852H493.037z"/>
<path style="fill:#464655;" d="M493.037,407.462c-7.948,6.016-17.73,9.723-28.444,9.723H445.63v-47.407h47.407V407.462z"/>
<path style="fill:#FFDC64;" d="M484.725,245.612l-29.614-37.019H56.889l-29.615,37.019c-5.38,6.724-8.311,15.079-8.311,23.692
	v100.474c0,15.71,12.735,28.444,28.444,28.444h417.185c15.71,0,28.444-12.735,28.444-28.444V269.304
	C493.037,260.691,490.105,252.335,484.725,245.612z"/>
<path style="fill:#FFC850;" d="M94.815,331.852c-5.236,0-9.481-4.245-9.481-9.482v-53.067c0-8.613,2.111-16.967,5.984-23.692
	l21.323-37.019H56.889l-29.615,37.019c-5.38,6.725-8.311,15.08-8.311,23.692v100.474c0,15.71,12.735,28.444,28.444,28.444h417.185
	c15.71,0,28.444-12.735,28.444-28.444v-37.926H94.815z"/>
<path style="fill:#5B5D6E;" d="M159.106,312.889h193.786c4.351,0,8.143-2.961,9.198-7.182l4.741-18.963
	c1.496-5.984-3.031-11.781-9.198-11.781H154.366c-6.169,0-10.694,5.797-9.198,11.781l4.741,18.963
	C150.963,309.927,154.756,312.889,159.106,312.889z"/>
<g>
	<circle style="fill:#FFFFFF;" cx="85.333" cy="355.556" r="14.222"/>
	<circle style="fill:#FFFFFF;" cx="426.667" cy="355.556" r="14.222"/>
	<circle style="fill:#FFFFFF;" cx="80.593" cy="289.185" r="28.444"/>
	<circle style="fill:#FFFFFF;" cx="431.407" cy="289.185" r="28.444"/>
</g>
<path style="fill:#464655;" d="M360.296,360.296H151.704c-5.236,0-9.481,4.245-9.481,9.481v28.444h227.556v-28.444
	C369.778,364.54,365.532,360.296,360.296,360.296z"/>
<path style="fill:#5B5D6E;" d="M284.444,94.815h-56.889c-5.236,0-9.481-4.245-9.481-9.481l0,0c0-5.236,4.245-9.481,9.481-9.481
	h56.889c5.236,0,9.481,4.245,9.481,9.481l0,0C293.926,90.569,289.681,94.815,284.444,94.815z"/>
<g>
</g>
<g>
</g>
<g>
</g>
<g>
</g>
<g>
</g>
<g>
</g>
<g>
</g>
<g>
</g>
<g>
</g>
<g>
</g>
<g>
</g>
<g>
</g>
<g>
</g>
<g>
</g>
<g>
</g>
</svg>
